<svg xmlns="http://www.w3.org/2000/svg" viewBox="0 0 512 512">
  <defs>
    <linearGradient id="bg" x1="0%" y1="0%" x2="100%" y2="100%">
      <stop offset="0%" stop-color="#1e293b" />
      <stop offset="100%" stop-color="#0f172a" />
    </linearGradient>
    <linearGradient id="sword" x1="0%" y1="0%" x2="100%" y2="100%">
      <stop offset="0%" stop-color="#fbbf24" />
      <stop offset="100%" stop-color="#f59e0b" />
    </linearGradient>
  </defs>
  <rect width="512" height="512" rx="112" fill="url(#bg)" />
  <path d="M362.7 149.3L314.5 197.5 352 235l47.5-47.5c12.5-12.5 12.5-32.8 0-45.3s-32.8-12.5-45.3 0zM176 336l-48 48-32-32-32 32 32 32-48 48c-12.5 12.5-12.5 32.8 0 45.3s32.8 12.5 45.3 0l48-48 32 32 32-32-32-32 48-48 138.7-138.7-74.7-74.7L176 336z" fill="url(#sword)" />
</svg>
